<svg version="1.0" xmlns="http://www.w3.org/2000/svg"
 width="512.000000pt" height="817.000000pt" viewBox="0 0 512.000000 817.000000"
 preserveAspectRatio="xMidYMid meet">

<g transform="translate(0.000000,817.000000) scale(0.100000,-0.100000)"
fill="#000000" stroke="none">
<path d="M2160 7480 l0 -230 215 0 215 0 0 230 0 230 -215 0 -215 0 0 -230z"/>
<path d="M2180 6840 l0 -230 215 0 215 0 0 230 0 230 -215 0 -215 0 0 -230z"/>
<path d="M1341 6435 c-117 -29 -218 -89 -313 -187 -73 -76 -135 -189 -160
-288 -11 -45 -13 -346 -13 -1640 0 -1294 2 -1595 13 -1640 56 -228 251 -422
477 -475 58 -13 215 -15 1215 -15 1000 0 1157 2 1215 15 178 42 343 173 422
336 23 46 47 109 55 139 11 45 13 346 13 1640 0 1294 -2 1595 -13 1640 -56
228 -251 422 -477 475 -58 13 -213 15 -1223 14 -923 -1 -1168 -4 -1211 -14z
m2332 -414 c54 -13 109 -54 138 -104 l24 -42 3 -1520 c2 -836 0 -1539 -3
-1561 -9 -62 -57 -128 -113 -156 l-47 -23 -1115 0 -1115 0 -47 23 c-56 28
-104 94 -113 156 -3 22 -5 725 -3 1561 l3 1520 24 42 c27 48 84 92 133 103 46
11 2184 12 2231 1z"/>
<path d="M2190 1840 l0 -230 215 0 215 0 0 230 0 230 -215 0 -215 0 0 -230z"/>
<path d="M2190 1270 l0 -230 215 0 215 0 0 230 0 230 -215 0 -215 0 0 -230z"/>
<path d="M2190 680 l0 -230 215 0 215 0 0 230 0 230 -215 0 -215 0 0 -230z"/>
</g>
</svg>